<svg width="37" height="45" viewBox="0 0 37 45" fill="none" xmlns="http://www.w3.org/2000/svg">
<path d="M30.9717 10.8198C31.079 5.25461 26.4873 0.983521 20.1735 0.983521H7.11417C6.80994 0.983568 6.51571 1.09219 6.28443 1.28984C6.05315 1.48749 5.9 1.76121 5.85254 2.06171L0.620004 34.7577C0.596595 34.9059 0.605572 35.0573 0.646321 35.2017C0.687069 35.346 0.75862 35.4798 0.856043 35.5938C0.953467 35.7079 1.07445 35.7994 1.21066 35.8622C1.34687 35.925 1.49507 35.9575 1.64505 35.9575H9.38181L8.17281 43.5299C8.14948 43.678 8.15852 43.8294 8.19931 43.9737C8.24009 44.118 8.31166 44.2517 8.40907 44.3657C8.50649 44.4796 8.62744 44.5711 8.76361 44.6339C8.89978 44.6967 9.04793 44.7291 9.19786 44.7292H15.5004C15.8046 44.7291 16.0757 44.6205 16.307 44.4229C16.5383 44.2252 16.5758 43.9515 16.6233 43.651L18.4731 32.7658C18.5204 32.4652 18.6735 32.0757 18.9048 31.878C19.1361 31.6802 19.3379 31.5715 19.6422 31.5715H23.4993C29.6822 31.5715 34.9286 27.1766 35.8877 21.0641C36.5663 16.7248 34.7061 12.7774 30.9717 10.8198Z" fill="#001C64"/>
<path d="M11.0556 23.9004L9.12865 36.1191L7.91965 43.784C7.89632 43.9321 7.90536 44.0835 7.94615 44.2278C7.98694 44.3721 8.05849 44.5058 8.15591 44.6198C8.25332 44.7337 8.37428 44.8252 8.51045 44.888C8.64661 44.9508 8.79476 44.9833 8.94469 44.9833H15.6146C15.9189 44.9832 16.2131 44.8746 16.4444 44.677C16.6757 44.4793 16.8288 44.2056 16.8763 43.9051L18.6336 32.7655C18.6809 32.4649 18.834 32.1911 19.0653 31.9933C19.2966 31.7956 19.5909 31.6869 19.8952 31.6868H23.8216C30.0046 31.6868 35.2509 27.1763 36.2101 21.0639C36.8902 16.7251 34.7062 12.7777 30.9719 10.8201C30.9628 11.2822 30.9224 11.7431 30.8508 12.1997C29.8922 18.3117 24.6448 22.8227 18.4624 22.8227H12.3172C12.013 22.8227 11.7188 22.9314 11.4875 23.129C11.2562 23.3267 11.1031 23.5999 11.0556 23.9004Z" fill="#0070E0"/>
<path d="M9.12766 36.1191H1.36778C1.21782 36.1192 1.06963 36.0867 0.933416 36.024C0.797206 35.9613 0.676212 35.8698 0.578779 35.7558C0.481347 35.6418 0.409789 35.508 0.369038 35.3637C0.328286 35.2194 0.31931 35.0679 0.342727 34.9198L5.57526 1.73823C5.62272 1.43772 5.77587 1.16401 6.00715 0.966353C6.23843 0.768701 6.53266 0.660082 6.8369 0.660034H20.1737C26.4875 0.660034 31.0793 5.25486 30.972 10.82C29.4007 9.99633 27.555 9.52468 25.5325 9.52468H14.4133C14.109 9.52474 13.8147 9.63344 13.5834 9.8312C13.3522 10.029 13.1991 10.3028 13.1517 10.6034L11.0566 23.9003L9.12766 36.1191Z" fill="#003087"/>
</svg>
